<svg width="29" height="29" viewBox="0 0 29 29" fill="none" xmlns="http://www.w3.org/2000/svg">
<path d="M14.2101 21.4973L14.983 22.2702C14.5561 22.6971 13.8641 22.6971 13.4372 22.2702L14.2101 21.4973ZM19.267 14.8946C19.6939 14.4678 20.3859 14.4678 20.8127 14.8946C21.2396 15.3215 21.2396 16.0135 20.8127 16.4404L19.267 14.8946ZM7.60738 16.4404C7.18051 16.0135 7.18051 15.3215 7.60738 14.8946C8.03425 14.4678 8.72636 14.4678 9.15323 14.8946L7.60738 16.4404ZM20.8127 16.4404L14.983 22.2702L13.4372 20.7244L19.267 14.8946L20.8127 16.4404ZM13.4372 22.2702L7.60738 16.4404L9.15323 14.8946L14.983 20.7244L13.4372 22.2702ZM26.234 14.2101C26.234 7.56952 20.8506 2.18617 14.2101 2.18617V3.8147e-06C22.0581 3.8147e-06 28.4202 6.36203 28.4202 14.2101H26.234ZM14.2101 2.18617C7.56946 2.18617 2.18617 7.56952 2.18617 14.2101H0C0 6.36203 6.36207 3.8147e-06 14.2101 3.8147e-06V2.18617ZM2.18617 14.2101C2.18617 20.8507 7.56946 26.234 14.2101 26.234V28.4202C6.36207 28.4202 0 22.0581 0 14.2101H2.18617ZM14.2101 26.234C20.8506 26.234 26.234 20.8507 26.234 14.2101H28.4202C28.4202 22.0581 22.0581 28.4202 14.2101 28.4202V26.234Z" fill="#001A72"/>
<path d="M14.492 15.2955L15.2649 16.0684C14.838 16.4953 14.146 16.4953 13.7191 16.0684L14.492 15.2955ZM19.5489 8.69283C19.9758 8.26594 20.6678 8.26594 21.0947 8.69283C21.5215 9.11971 21.5215 9.81171 21.0947 10.2386L19.5489 8.69283ZM7.88928 10.2386C7.46241 9.81171 7.46241 9.11971 7.88928 8.69283C8.31616 8.26594 9.00827 8.26594 9.43514 8.69283L7.88928 10.2386ZM21.0947 10.2386L15.2649 16.0684L13.7191 14.5226L19.5489 8.69283L21.0947 10.2386ZM13.7191 16.0684L7.88928 10.2386L9.43514 8.69283L15.2649 14.5226L13.7191 16.0684Z" fill="#001A72"/>
</svg>
