<svg width="29" height="28" viewBox="0 0 29 28" fill="none" xmlns="http://www.w3.org/2000/svg">
<g clip-path="url(#clip0_202_683)">
<path d="M28.0011 0.66416C27.7009 0.366015 27.3243 0.156456 26.9127 0.0585368C26.5011 -0.039382 26.0704 -0.0218654 25.6681 0.109159L2.45316 7.85316C2.02262 7.98959 1.64216 8.25054 1.35985 8.60307C1.07753 8.95559 0.906015 9.38387 0.86696 9.83382C0.827904 10.2838 0.923062 10.7352 1.14041 11.1311C1.35776 11.527 1.68756 11.8496 2.08816 12.0582L11.7201 16.8192L16.4811 26.4832C16.6724 26.8615 16.9652 27.1792 17.3267 27.4006C17.6882 27.6221 18.1042 27.7386 18.5281 27.7372H18.6871C19.1412 27.7037 19.5747 27.5345 19.9314 27.2515C20.288 26.9685 20.5514 26.5848 20.6871 26.1502L28.5411 2.99716C28.6814 2.59708 28.7052 2.16537 28.6096 1.75232C28.514 1.33927 28.303 0.96189 28.0011 0.66416ZM3.43316 10.0472L23.6971 3.28716L12.4501 14.5332L3.43316 10.0472ZM18.6331 25.2332L14.1331 16.2152L25.3831 4.96416L18.6331 25.2332Z" fill="#1F278A"/>
</g>
<defs>
<clipPath id="clip0_202_683">
<rect width="29" height="28" fill="white"/>
</clipPath>
</defs>
</svg>
