<svg width="29" height="29" viewBox="0 0 29 29" fill="none" xmlns="http://www.w3.org/2000/svg">
<path d="M14.2101 6.92287L14.983 6.14994C14.5561 5.72307 13.8641 5.72307 13.4372 6.14994L14.2101 6.92287ZM19.267 13.5255C19.6939 13.9524 20.3859 13.9524 20.8127 13.5255C21.2396 13.0986 21.2396 12.4066 20.8127 11.9798L19.267 13.5255ZM7.60738 11.9798C7.18051 12.4066 7.18051 13.0986 7.60738 13.5255C8.03425 13.9524 8.72636 13.9524 9.15323 13.5255L7.60738 11.9798ZM20.8127 11.9798L14.983 6.14994L13.4372 7.69579L19.267 13.5255L20.8127 11.9798ZM13.4372 6.14994L7.60738 11.9798L9.15323 13.5255L14.983 7.69579L13.4372 6.14994ZM26.234 14.2101C26.234 20.8506 20.8506 26.234 14.2101 26.234V28.4202C22.0581 28.4202 28.4202 22.0581 28.4202 14.2101H26.234ZM14.2101 26.234C7.56946 26.234 2.18617 20.8506 2.18617 14.2101H0C0 22.0581 6.36207 28.4202 14.2101 28.4202V26.234ZM2.18617 14.2101C2.18617 7.56946 7.56946 2.18617 14.2101 2.18617V0C6.36207 0 0 6.36207 0 14.2101H2.18617ZM14.2101 2.18617C20.8506 2.18617 26.234 7.56946 26.234 14.2101H28.4202C28.4202 6.36207 22.0581 0 14.2101 0V2.18617Z" fill="#001A72"/>
<path d="M14.492 13.1247L15.2649 12.3518C14.838 11.9249 14.146 11.9249 13.7191 12.3518L14.492 13.1247ZM19.5489 19.7273C19.9758 20.1542 20.6678 20.1542 21.0947 19.7273C21.5215 19.3005 21.5215 18.6085 21.0947 18.1816L19.5489 19.7273ZM7.88928 18.1816C7.46241 18.6085 7.46241 19.3005 7.88928 19.7273C8.31616 20.1542 9.00827 20.1542 9.43514 19.7273L7.88928 18.1816ZM21.0947 18.1816L15.2649 12.3518L13.7191 13.8976L19.5489 19.7273L21.0947 18.1816ZM13.7191 12.3518L7.88928 18.1816L9.43514 19.7273L15.2649 13.8976L13.7191 12.3518Z" fill="#001A72"/>
</svg>
